<svg id="Capa_1" data-name="Capa 1" xmlns="http://www.w3.org/2000/svg" viewBox="0 0 32 32"><defs><style>.cls-1{fill:#070308;}</style></defs><title>config</title><path class="cls-1" d="M35.91,18.54h-2.4a11.91,11.91,0,0,0-1.28-3.08l1.67-1.7a2,2,0,0,0,0-2.83h0l-1.4-1.39a2,2,0,0,0-2.83,0h0L28,11.23a11.91,11.91,0,0,0-3.09-1.3V7.54a2,2,0,0,0-2-2h-2a2,2,0,0,0-2,2v2.4a11.91,11.91,0,0,0-3.08,1.28l-1.7-1.68a2,2,0,0,0-2.83,0h0l-1.39,1.4a2,2,0,0,0,0,2.83h0l1.69,1.69a11.91,11.91,0,0,0-1.3,3.08H7.91a2,2,0,0,0-2,2v2a2,2,0,0,0,2,2h2.4a11.91,11.91,0,0,0,1.28,3.08L9.91,29.32a2,2,0,0,0,0,2.83h0l1.4,1.39a2,2,0,0,0,2.83,0h0l1.69-1.69a11.91,11.91,0,0,0,3.08,1.29v2.4a2,2,0,0,0,2,2h2a2,2,0,0,0,2-2v-2.4A11.91,11.91,0,0,0,28,31.86l1.69,1.67a2,2,0,0,0,2.83,0h0l1.39-1.4a2,2,0,0,0,0-2.83h0l-1.69-1.69a11.91,11.91,0,0,0,1.29-3.09h2.4a2,2,0,0,0,2-2v-2A2,2,0,0,0,35.91,18.54Zm-14,8a5,5,0,1,1,5-5A5,5,0,0,1,21.91,26.54Z" transform="translate(-5.91 -5.54)"/></svg>