<?xml version="1.0" encoding="utf-8"?>
<!-- Generator: Adobe Illustrator 21.1.0, SVG Export Plug-In . SVG Version: 6.00 Build 0)  -->
<svg version="1.1" id="Capa_1" xmlns="http://www.w3.org/2000/svg" xmlns:xlink="http://www.w3.org/1999/xlink" x="0px" y="0px"
	 viewBox="0 0 29.9 33.6" style="enable-background:new 0 0 29.9 33.6;" xml:space="preserve">
<style type="text/css">
	.st0{fill:#F8931E;}
</style>
<title>off</title>
<path class="st0" d="M14.9,1.8C6.7,1.8,0.1,8.4,0.1,16.6c0,8.2,6.6,14.8,14.8,14.8s14.8-6.6,14.8-14.8S23,1.8,14.9,1.8z M14.9,25.9
	c-5.2,0-9.3-4.2-9.3-9.3c0-5.2,4.2-9.3,9.3-9.3c5.2,0,9.3,4.2,9.3,9.3C24.3,21.7,20.1,25.9,14.9,25.9z"/>
<g>
	<path class="st0" d="M14.8,9.3c-0.9,0-1.7,0.7-1.7,1.7c0,0.9,0.7,1.7,1.7,1.7c0.9,0,1.7-0.7,1.7-1.7C16.5,10.1,15.7,9.3,14.8,9.3"
		/>
	<path class="st0" d="M11,20c-0.9,0-1.7,0.7-1.7,1.7c0,0.9,0.7,1.7,1.7,1.7c0.9,0,1.7-0.7,1.7-1.7C12.6,20.8,11.9,20,11,20"/>
	<path class="st0" d="M20.8,13.5c-0.9,0-1.7,0.7-1.7,1.7c0,0.9,0.7,1.7,1.7,1.7c0.9,0,1.7-0.7,1.7-1.7
		C22.5,14.2,21.7,13.5,20.8,13.5"/>
	<path class="st0" d="M9,13.5c-0.9,0-1.7,0.7-1.7,1.7c0,0.9,0.7,1.7,1.7,1.7c0.9,0,1.7-0.7,1.7-1.7C10.6,14.2,9.9,13.5,9,13.5"/>
	<path class="st0" d="M18.3,20c-0.9,0-1.7,0.7-1.7,1.7c0,0.9,0.7,1.7,1.7,1.7s1.7-0.7,1.7-1.7C19.9,20.8,19.2,20,18.3,20"/>
</g>
</svg>
