<?xml version="1.0" encoding="utf-8"?>
<!-- Generator: Adobe Illustrator 16.0.0, SVG Export Plug-In . SVG Version: 6.00 Build 0)  -->
<!DOCTYPE svg PUBLIC "-//W3C//DTD SVG 1.1//EN" "http://www.w3.org/Graphics/SVG/1.1/DTD/svg11.dtd">
<svg version="1.1" id="Capa_1" xmlns="http://www.w3.org/2000/svg" xmlns:xlink="http://www.w3.org/1999/xlink" x="0px" y="0px"
   width="207px" height="71px" viewBox="0 0 207 71" enable-background="new 0 0 207 71" xml:space="preserve">
<g>
  <g>
    <path d="M0,26.761c1.202-0.345,2.705-0.645,4.595-0.902c1.889-0.3,3.864-0.429,5.925-0.429c2.104,0,3.865,0.258,5.239,0.773
      c1.374,0.516,2.491,1.244,3.306,2.188c0.816,0.944,1.374,2.063,1.718,3.352c0.343,1.287,0.516,2.747,0.516,4.336v13.096h-7V36.852
      c0-2.104-0.3-3.606-0.901-4.509s-1.718-1.331-3.35-1.331c-0.515,0-1.03,0.043-1.588,0.087c-0.559,0.042-1.074,0.085-1.503,0.171
      v17.905H0V26.761z"/>
    <path d="M23.188,37.754c0-2.062,0.344-3.864,1.03-5.411c0.687-1.546,1.546-2.833,2.663-3.864c1.117-1.031,2.362-1.803,3.779-2.318
      s2.877-0.817,4.38-0.817c3.521,0,6.27,0.989,8.331,3.007c2.018,2.018,3.049,4.98,3.049,8.889c0,0.387,0,0.816-0.042,1.247
      c-0.043,0.472-0.043,0.855-0.086,1.2H30.402c0.172,1.374,0.816,2.447,2.019,3.221c1.202,0.815,2.791,1.204,4.809,1.204
      c1.289,0,2.534-0.131,3.779-0.345c1.246-0.215,2.233-0.473,3.049-0.815l0.945,5.322c-0.387,0.172-0.858,0.345-1.503,0.516
      c-0.645,0.174-1.332,0.345-2.104,0.472c-0.773,0.131-1.59,0.258-2.448,0.345c-0.858,0.086-1.76,0.129-2.619,0.129
      c-2.232,0-4.165-0.301-5.797-0.945c-1.632-0.602-3.006-1.458-4.08-2.531c-1.073-1.073-1.889-2.364-2.405-3.822
      C23.446,41.06,23.188,39.472,23.188,37.754z M39.634,35.264c-0.043-0.559-0.129-1.118-0.301-1.632
      c-0.171-0.516-0.43-0.988-0.815-1.418c-0.344-0.429-0.817-0.729-1.375-1.03c-0.559-0.258-1.245-0.387-2.061-0.387
      c-0.773,0-1.46,0.129-2.018,0.387c-0.559,0.257-1.032,0.602-1.418,0.988c-0.386,0.429-0.687,0.9-0.858,1.418
      c-0.215,0.556-0.344,1.115-0.43,1.674H39.634z"/>
  </g>
  <g>
    <path fill="#F8931E" d="M87.729,25.343c2.061,0,3.777,0.216,5.15,0.645c1.377,0.429,2.491,1.073,3.307,1.891
      c0.816,0.816,1.417,1.845,1.762,3.005c0.344,1.16,0.516,2.491,0.516,3.951V48.53c-0.987,0.216-2.404,0.432-4.166,0.729
      c-1.804,0.304-3.951,0.431-6.484,0.431c-1.588,0-3.049-0.127-4.336-0.387c-1.289-0.258-2.406-0.687-3.351-1.286
      c-0.945-0.601-1.674-1.376-2.147-2.362c-0.515-0.987-0.773-2.147-0.773-3.565c0-1.373,0.302-2.491,0.86-3.436
      c0.558-0.944,1.374-1.674,2.319-2.231c0.988-0.56,2.061-0.944,3.35-1.202c1.245-0.258,2.531-0.387,3.907-0.387
      c0.902,0,1.718,0.043,2.405,0.129c0.686,0.085,1.287,0.172,1.717,0.301v-0.729c0-1.117-0.344-2.02-1.072-2.707
      c-0.729-0.687-1.977-1.03-3.781-1.03c-1.201,0-2.361,0.086-3.52,0.258c-1.16,0.173-2.147,0.386-3.006,0.688l-0.902-5.282
      c0.388-0.129,0.902-0.258,1.545-0.387c0.603-0.129,1.289-0.258,1.976-0.343c0.73-0.087,1.46-0.173,2.275-0.26
      C86.096,25.387,86.911,25.343,87.729,25.343z M88.287,44.624c0.687,0,1.331,0,1.975-0.043c0.644-0.042,1.116-0.086,1.503-0.129
      v-4.98c-0.301-0.044-0.688-0.131-1.289-0.173c-0.559-0.044-1.072-0.084-1.546-0.084c-0.643,0-1.287,0.04-1.845,0.126
      c-0.602,0.087-1.074,0.218-1.547,0.432c-0.431,0.213-0.773,0.471-1.031,0.859c-0.256,0.343-0.387,0.816-0.387,1.329
      c0,1.031,0.387,1.761,1.118,2.149C86.01,44.41,86.998,44.624,88.287,44.624z"/>
    <path fill="#F8931E" d="M122.637,48.404c-1.201,0.342-2.703,0.642-4.594,0.899c-1.889,0.301-3.863,0.43-5.924,0.43
      c-2.105,0-3.865-0.256-5.24-0.816c-1.373-0.513-2.492-1.286-3.306-2.231c-0.816-0.944-1.373-2.104-1.717-3.436
      s-0.516-2.791-0.516-4.38V25.987h6.998v12.153c0,2.103,0.303,3.649,0.902,4.594c0.602,0.944,1.719,1.416,3.35,1.416
      c0.516,0,1.031-0.04,1.59-0.085c0.557-0.042,1.072-0.086,1.502-0.173V25.987h7v22.417H122.637z"/>
    <path fill="#F8931E" d="M125.686,20.191l7-1.073v6.827h8.416v5.453h-8.416v8.16c0,1.372,0.258,2.489,0.775,3.305
      c0.514,0.815,1.543,1.247,3.133,1.247c0.773,0,1.545-0.087,2.318-0.218c0.816-0.127,1.547-0.298,2.189-0.558l0.988,5.109
      c-0.857,0.344-1.803,0.602-2.834,0.859c-1.031,0.214-2.32,0.345-3.82,0.345c-1.891,0-3.479-0.258-4.725-0.731
      c-1.244-0.473-2.275-1.157-3.006-2.018c-0.773-0.86-1.287-1.934-1.588-3.178c-0.303-1.245-0.432-2.618-0.432-4.123V20.191
      L125.686,20.191z"/>
    <path fill="#F8931E" d="M165.664,37.539c0,1.847-0.299,3.478-0.859,5.022c-0.559,1.504-1.373,2.791-2.447,3.864
      c-1.072,1.074-2.359,1.892-3.82,2.491c-1.504,0.601-3.137,0.902-4.98,0.902c-1.805,0-3.479-0.302-4.941-0.902
      c-1.5-0.6-2.746-1.417-3.82-2.491c-1.072-1.073-1.889-2.36-2.49-3.864c-0.602-1.502-0.902-3.176-0.902-5.022
      c0-1.803,0.301-3.479,0.902-4.98c0.602-1.504,1.461-2.791,2.533-3.822c1.074-1.073,2.361-1.889,3.863-2.491
      c1.504-0.601,3.094-0.902,4.855-0.902c1.803,0,3.434,0.302,4.895,0.902c1.502,0.603,2.748,1.418,3.82,2.491
      c1.074,1.073,1.889,2.318,2.492,3.822C165.365,34.061,165.664,35.692,165.664,37.539z M158.492,37.539
      c0-2.018-0.428-3.607-1.287-4.81c-0.859-1.16-2.104-1.76-3.693-1.76s-2.834,0.6-3.691,1.76c-0.859,1.16-1.332,2.749-1.332,4.81
      c0,2.02,0.43,3.648,1.332,4.854c0.857,1.202,2.102,1.802,3.691,1.802s2.834-0.6,3.693-1.802
      C158.064,41.188,158.492,39.559,158.492,37.539z"/>
  </g>
  <path d="M61.62,22.767c-8.03,0-14.557,6.527-14.557,14.557S53.59,51.882,61.62,51.882c8.03,0,14.558-6.529,14.558-14.559
    S69.65,22.767,61.62,22.767z M61.62,46.513c-5.067,0-9.189-4.12-9.189-9.189c0-5.066,4.122-9.189,9.189-9.189
    c5.068,0,9.19,4.123,9.19,9.189C70.852,42.393,66.73,46.513,61.62,46.513z"/>
  <g>
    <path fill="#F8931E" d="M61.576,30.196c-0.901,0-1.631,0.729-1.631,1.631c0,0.902,0.73,1.634,1.631,1.634
      c0.902,0,1.633-0.731,1.633-1.634C63.209,30.926,62.479,30.196,61.576,30.196"/>
    <path fill="#F8931E" d="M57.798,40.717c-0.902,0-1.632,0.731-1.632,1.631c0,0.902,0.73,1.632,1.632,1.632s1.631-0.729,1.631-1.632
      C59.429,41.448,58.7,40.717,57.798,40.717"/>
    <path fill="#F8931E" d="M67.459,34.274c-0.9,0-1.631,0.731-1.631,1.634c0,0.901,0.731,1.631,1.631,1.631
      c0.902,0,1.633-0.729,1.633-1.631C69.092,35.006,68.361,34.274,67.459,34.274"/>
    <path fill="#F8931E" d="M55.823,34.274c-0.902,0-1.632,0.731-1.632,1.634c0,0.901,0.729,1.631,1.632,1.631
      c0.901,0,1.631-0.729,1.631-1.631C57.455,35.006,56.725,34.274,55.823,34.274"/>
    <path fill="#F8931E" d="M64.97,40.717c-0.902,0-1.633,0.731-1.633,1.631c0,0.902,0.73,1.632,1.633,1.632s1.631-0.729,1.631-1.632
      C66.601,41.448,65.872,40.717,64.97,40.717"/>
  </g>
</g>
</svg>
