<svg id="Capa_1" data-name="Capa 1" xmlns="http://www.w3.org/2000/svg" viewBox="0 0 29.87 33.59"><defs><style>.cls-1{fill:#070308;}</style></defs><title>off</title><path class="cls-1" d="M29.06,10.54a2.34,2.34,0,0,0-2.38,4,10.26,10.26,0,1,1-15.49,8.83A10.21,10.21,0,0,1,16,14.68a2.34,2.34,0,0,0-2.47-4A14.93,14.93,0,1,0,36.38,23.39,15,15,0,0,0,29.06,10.54Z" transform="translate(-6.52 -4.73)"/><path class="cls-1" d="M21.34,20.9a2.33,2.33,0,0,0,2.34-2.34V7.06a2.34,2.34,0,1,0-4.67,0v11.5A2.34,2.34,0,0,0,21.34,20.9Z" transform="translate(-6.52 -4.73)"/></svg>