<svg id="Capa_1" data-name="Capa 1" xmlns="http://www.w3.org/2000/svg" viewBox="0 0 30 28"><defs><style>.cls-1{fill:#070308;}</style></defs><title>menu</title><path class="cls-1" d="M6.33,32.37a3,3,0,0,0,3,3h24a3,3,0,0,0,0-6h-24A3,3,0,0,0,6.33,32.37Z" transform="translate(-6.33 -7.37)"/><path class="cls-1" d="M6.33,21.37a3,3,0,0,0,3,3h24a3,3,0,0,0,0-6h-24A3,3,0,0,0,6.33,21.37Z" transform="translate(-6.33 -7.37)"/><path class="cls-1" d="M9.33,7.37a3,3,0,0,0,0,6h24a3,3,0,0,0,0-6Z" transform="translate(-6.33 -7.37)"/></svg>