<svg id="Capa_1" data-name="Capa 1" xmlns="http://www.w3.org/2000/svg" viewBox="0 0 34.33 33.57"><defs><style>.cls-1{fill:#070308;}</style></defs><title>tiend</title><path class="cls-1" d="M38.89,15.65c.67,2-1.91,4.07-4.32,4.07a4.18,4.18,0,0,1-4.32-4.07,4.18,4.18,0,0,1-4.32,4.07,4.18,4.18,0,0,1-4.32-4.07,4.18,4.18,0,0,1-4.32,4.07,4.18,4.18,0,0,1-4.32-4.07,4.18,4.18,0,0,1-4.32,4.07H8.2a3.85,3.85,0,0,1-3.12-5.54L9.62,5.11a.76.76,0,0,1,.64-.33H34.5a.76.76,0,0,1,.64.33S38.22,13.64,38.89,15.65Z" transform="translate(-4.67 -4.78)"/><path class="cls-1" d="M37.17,36.18H34.78V21.11h-.21a5.94,5.94,0,0,1-2.8-.71V36.18H22.55V20.07a5.85,5.85,0,0,1-1-.82,5.94,5.94,0,0,1-8.65,0,5.73,5.73,0,0,1-2.69,1.6V36.18H7.75a1.09,1.09,0,1,0,0,2.17H37.17a1.09,1.09,0,1,0,0-2.17Z" transform="translate(-4.67 -4.78)"/><path class="cls-1" d="M30.5,22.79l-5,4.69a1.25,1.25,0,0,1-1.69,0h0a1.08,1.08,0,0,1,0-1.59l5-4.69a1.25,1.25,0,0,1,1.69,0h0A1.08,1.08,0,0,1,30.5,22.79Z" transform="translate(-4.67 -4.78)"/><path class="cls-1" d="M30.5,28.36l-5,4.69a1.25,1.25,0,0,1-1.69,0h0a1.08,1.08,0,0,1,0-1.59l5-4.69a1.25,1.25,0,0,1,1.69,0h0A1.08,1.08,0,0,1,30.5,28.36Z" transform="translate(-4.67 -4.78)"/></svg>